<?xml version="1.0" encoding="utf-8"?>
<!DOCTYPE svg PUBLIC "-//W3C//DTD SVG 1.1//EN" "http://www.w3.org/Graphics/SVG/1.1/DTD/svg11.dtd">
<svg version="1.1" xmlns="http://www.w3.org/2000/svg" xmlns:xlink="http://www.w3.org/1999/xlink" x="0px" y="0px" viewBox="0 0 200 200" style="enable-background:new 0 0 200 200;" xml:space="preserve">
	<g fill="#888888">
		<path d="M72.154,98.532c6.596,0,11.961-5.366,11.961-11.962s-5.366-11.962-11.961-11.962 c-6.596,0-11.962,5.366-11.962,11.962S65.558,98.532,72.154,98.532z"/>
		<path d="M100,182.071c6.596,0,11.962-5.366,11.962-11.962c0-6.596-5.366-11.962-11.962-11.962 s-11.962,5.366-11.962,11.962C88.038,176.705,93.404,182.071,100,182.071z"/>
		<path d="M72.154,70.686c6.596,0,11.961-5.366,11.961-11.962c0-6.596-5.366-11.961-11.961-11.961 c-6.596,0-11.962,5.366-11.962,11.961C60.192,65.32,65.558,70.686,72.154,70.686z"/>
		<path d="M72.154,126.378c6.596,0,11.961-5.366,11.961-11.962s-5.366-11.962-11.961-11.962 c-6.596,0-11.962,5.366-11.962,11.962S65.558,126.378,72.154,126.378z"/>
		<path d="M72.154,154.225c6.596,0,11.961-5.366,11.961-11.961c0-6.596-5.366-11.962-11.961-11.962 c-6.596,0-11.962,5.366-11.962,11.962C60.192,148.859,65.558,154.225,72.154,154.225z"/>
		<path d="M171.577,86.571c0,6.596,5.366,11.962,11.962,11.962S195.5,93.166,195.5,86.571 s-5.366-11.962-11.962-11.962S171.577,79.975,171.577,86.571z"/>
		<path d="M100,154.225c6.596,0,11.962-5.366,11.962-11.961c0-6.596-5.366-11.962-11.962-11.962 s-11.962,5.366-11.962,11.962C88.038,148.859,93.404,154.225,100,154.225z"/>
		<path d="M16.462,112.455c6.596,0,11.962-5.366,11.962-11.962c0-6.596-5.366-11.961-11.962-11.961 S4.5,93.898,4.5,100.494C4.5,107.089,9.866,112.455,16.462,112.455z"/>
		<path d="M44.308,98.532c6.596,0,11.962-5.366,11.962-11.962s-5.366-11.962-11.962-11.962 c-6.596,0-11.961,5.366-11.961,11.962S37.712,98.532,44.308,98.532z"/>
		<path d="M44.308,126.378c6.596,0,11.962-5.366,11.962-11.962s-5.366-11.962-11.962-11.962 c-6.596,0-11.961,5.366-11.961,11.962S37.712,126.378,44.308,126.378z"/>
		<path d="M155.692,98.532c6.596,0,11.962-5.366,11.962-11.962s-5.366-11.962-11.962-11.962 s-11.962,5.366-11.962,11.962S149.097,98.532,155.692,98.532z"/>
		<path d="M127.846,98.532c6.596,0,11.962-5.366,11.962-11.962s-5.366-11.962-11.962-11.962 c-6.596,0-11.961,5.366-11.961,11.962S121.251,98.532,127.846,98.532z"/>
		<path d="M167.654,114.417c0-6.596-5.366-11.962-11.962-11.962s-11.962,5.366-11.962,11.962 s5.366,11.962,11.962,11.962S167.654,121.013,167.654,114.417z"/>
		<path d="M100,126.378c6.596,0,11.962-5.366,11.962-11.962s-5.366-11.962-11.962-11.962 s-11.962,5.366-11.962,11.962S93.404,126.378,100,126.378z"/>
		<path d="M183.538,102.455c-6.596,0-11.962,5.366-11.962,11.962s5.366,11.962,11.962,11.962 s11.962-5.366,11.962-11.962S190.134,102.455,183.538,102.455z"/>
		<path d="M100,98.532c6.596,0,11.962-5.366,11.962-11.962S106.596,74.609,100,74.609 s-11.962,5.366-11.962,11.962S93.404,98.532,100,98.532z"/>
		<path d="M100,70.686c6.596,0,11.962-5.366,11.962-11.962c0-6.596-5.366-11.961-11.962-11.961 s-11.962,5.366-11.962,11.961C88.038,65.32,93.404,70.686,100,70.686z"/>
		<path d="M100,42.84c6.596,0,11.962-5.366,11.962-11.962c0-6.596-5.366-11.962-11.962-11.962 s-11.962,5.366-11.962,11.962C88.038,37.474,93.404,42.84,100,42.84z"/>
		<path d="M139.808,114.417c0-6.596-5.366-11.962-11.962-11.962c-6.596,0-11.961,5.366-11.961,11.962 s5.366,11.962,11.961,11.962C134.442,126.378,139.808,121.013,139.808,114.417z"/>
	</g>
</svg>
